<svg width="94" height="97" viewBox="0 0 94 97" fill="none" xmlns="http://www.w3.org/2000/svg">
<path d="M11.9205 31.1213C23.8565 22.182 37.7534 16.696 52.4812 20.6913C65.7746 24.2976 74.1441 35.6273 65.1806 49.6387C60.9376 56.2715 51.9034 60.9141 44.8019 57.1359C36.8902 52.9266 43.1261 42.3026 48.191 39.2388C60.0204 32.0827 76.671 35.4089 84.8607 49.3082C94.5592 65.7683 78.1566 73.9612 78.1454 73.8276" stroke="black" stroke-width="2.40297" stroke-miterlimit="1.5" stroke-linecap="round" stroke-linejoin="round"/>
<path d="M14.4954 13.403C14.9287 15.1273 14.6785 16.8534 14.5082 18.5913C13.9495 24.2976 11.7125 30.222 7.69872 33.9646C12.9804 31.6488 20.5576 30.6402 25.3548 34.7052" stroke="black" stroke-width="2.40297" stroke-miterlimit="1.5" stroke-linecap="round" stroke-linejoin="round"/>
</svg>
