<svg width="86" height="138" viewBox="0 0 86 138" fill="none" xmlns="http://www.w3.org/2000/svg">
<g opacity="0.5">
<rect x="0.755859" y="0.661743" width="2.01956" height="2.02287" fill="black"/>
<rect x="14.2002" y="0.661621" width="2.01956" height="2.02287" fill="black"/>
<rect x="27.6523" y="0.661621" width="2.01956" height="2.02287" fill="black"/>
<rect x="41.0947" y="0.661621" width="2.01956" height="2.02287" fill="black"/>
<rect x="54.54" y="0.661621" width="2.01956" height="2.02287" fill="black"/>
<rect x="67.9854" y="0.661621" width="2.01956" height="2.02287" fill="black"/>
<rect x="81.4365" y="0.661621" width="2.01956" height="2.02287" fill="black"/>
<rect x="0.755859" y="14.1273" width="2.01956" height="2.02287" fill="black"/>
<rect x="14.2002" y="14.1273" width="2.01956" height="2.02287" fill="black"/>
<rect x="27.6523" y="14.1273" width="2.01956" height="2.02287" fill="black"/>
<rect x="41.0947" y="14.1273" width="2.01956" height="2.02287" fill="black"/>
<rect x="54.54" y="14.1273" width="2.01956" height="2.02287" fill="black"/>
<rect x="67.9854" y="14.1273" width="2.01956" height="2.02287" fill="black"/>
<rect x="81.4365" y="14.1273" width="2.01956" height="2.02287" fill="black"/>
<rect x="0.755859" y="27.6019" width="2.01956" height="2.02287" fill="black"/>
<rect x="14.2002" y="27.6028" width="2.01956" height="2.02287" fill="black"/>
<rect x="27.6523" y="27.6019" width="2.01956" height="2.02287" fill="black"/>
<rect x="41.0957" y="27.6028" width="2.01956" height="2.02287" fill="black"/>
<rect x="54.54" y="27.6028" width="2.01956" height="2.02287" fill="black"/>
<rect x="67.9854" y="27.6028" width="2.01956" height="2.02287" fill="black"/>
<rect x="81.4365" y="27.6028" width="2.01956" height="2.02287" fill="black"/>
<rect x="0.755859" y="41.0676" width="2.01956" height="2.02287" fill="black"/>
<rect x="14.2002" y="41.0676" width="2.01956" height="2.02287" fill="black"/>
<rect x="27.6523" y="41.0676" width="2.01956" height="2.02287" fill="black"/>
<rect x="41.0947" y="41.0676" width="2.01956" height="2.02287" fill="black"/>
<rect x="54.54" y="41.0676" width="2.01956" height="2.02287" fill="black"/>
<rect x="67.9854" y="41.0676" width="2.01956" height="2.02287" fill="black"/>
<rect x="81.4365" y="41.0676" width="2.01956" height="2.02287" fill="black"/>
<rect x="0.755859" y="54.5362" width="2.01956" height="2.02287" fill="black"/>
<rect x="14.2002" y="54.5362" width="2.01956" height="2.02287" fill="black"/>
<rect x="27.6523" y="54.5362" width="2.01956" height="2.02287" fill="black"/>
<rect x="41.0947" y="54.5362" width="2.01956" height="2.02287" fill="black"/>
<rect x="54.54" y="54.5362" width="2.01956" height="2.02287" fill="black"/>
<rect x="67.9854" y="54.5362" width="2.01956" height="2.02287" fill="black"/>
<rect x="81.4365" y="54.5362" width="2.01956" height="2.02287" fill="black"/>
<rect x="0.755859" y="68.0029" width="2.01956" height="2.02287" fill="black"/>
<rect x="14.2002" y="68.0029" width="2.01956" height="2.02287" fill="black"/>
<rect x="27.6523" y="68.0029" width="2.01956" height="2.02287" fill="black"/>
<rect x="41.0947" y="68.0029" width="2.01956" height="2.02287" fill="black"/>
<rect x="54.54" y="68.0029" width="2.01956" height="2.02287" fill="black"/>
<rect x="67.9854" y="68.0029" width="2.01956" height="2.02287" fill="black"/>
<rect x="81.4365" y="68.0029" width="2.01956" height="2.02287" fill="black"/>
<rect x="0.755859" y="81.4755" width="2.01956" height="2.02287" fill="black"/>
<rect x="14.2002" y="81.4755" width="2.01956" height="2.02287" fill="black"/>
<rect x="27.6523" y="81.4755" width="2.01956" height="2.02287" fill="black"/>
<rect x="41.0947" y="81.4755" width="2.01956" height="2.02287" fill="black"/>
<rect x="54.54" y="81.4755" width="2.01956" height="2.02287" fill="black"/>
<rect x="67.9854" y="81.4755" width="2.01956" height="2.02287" fill="black"/>
<rect x="81.4365" y="81.4755" width="2.01956" height="2.02287" fill="black"/>
<rect x="0.755859" y="94.9422" width="2.01956" height="2.02287" fill="black"/>
<rect x="14.2002" y="94.9441" width="2.01956" height="2.02287" fill="black"/>
<rect x="27.6523" y="94.9441" width="2.01956" height="2.02287" fill="black"/>
<rect x="41.0947" y="94.9441" width="2.01956" height="2.02287" fill="black"/>
<rect x="54.54" y="94.9441" width="2.01956" height="2.02287" fill="black"/>
<rect x="67.9854" y="94.9441" width="2.01956" height="2.02287" fill="black"/>
<rect x="81.4365" y="94.9441" width="2.01956" height="2.02287" fill="black"/>
<rect x="0.755859" y="108.41" width="2.01956" height="2.02287" fill="black"/>
<rect x="14.2002" y="108.41" width="2.01956" height="2.02287" fill="black"/>
<rect x="27.6523" y="108.41" width="2.01956" height="2.02287" fill="black"/>
<rect x="41.0947" y="108.41" width="2.01956" height="2.02287" fill="black"/>
<rect x="54.54" y="108.41" width="2.01956" height="2.02287" fill="black"/>
<rect x="67.9854" y="108.41" width="2.01956" height="2.02287" fill="black"/>
<rect x="81.4365" y="108.41" width="2.01956" height="2.02287" fill="black"/>
<rect x="0.755859" y="121.877" width="2.01956" height="2.02287" fill="black"/>
<rect x="14.2002" y="121.877" width="2.01956" height="2.02287" fill="black"/>
<rect x="27.6523" y="121.877" width="2.01956" height="2.02287" fill="black"/>
<rect x="41.0947" y="121.877" width="2.01956" height="2.02287" fill="black"/>
<rect x="54.54" y="121.877" width="2.01956" height="2.02287" fill="black"/>
<rect x="67.9854" y="121.877" width="2.01956" height="2.02287" fill="black"/>
<rect x="81.4365" y="121.877" width="2.01956" height="2.02287" fill="black"/>
<rect x="0.755859" y="135.348" width="2.01956" height="2.02287" fill="black"/>
<rect x="14.2002" y="135.349" width="2.01956" height="2.02287" fill="black"/>
<rect x="27.6523" y="135.349" width="2.01956" height="2.02287" fill="black"/>
<rect x="41.0947" y="135.349" width="2.01956" height="2.02287" fill="black"/>
<rect x="54.54" y="135.349" width="2.01956" height="2.02287" fill="black"/>
<rect x="67.9854" y="135.349" width="2.01956" height="2.02287" fill="black"/>
<rect x="81.4365" y="135.349" width="2.01956" height="2.02287" fill="black"/>
</g>
</svg>
