<svg width="47" height="47" viewBox="0 0 47 47" fill="none" xmlns="http://www.w3.org/2000/svg">
<path d="M41.0923 31.6358C39.3906 31.6358 38.6364 30.9783 37.5729 30.0501C36.3933 29.0445 34.9236 27.7682 32.1583 27.7682C29.3737 27.7682 27.9233 29.0445 26.7437 30.0501C25.6801 30.9783 24.9066 31.6358 23.2049 31.6358C21.5225 31.6358 20.749 30.9783 19.6854 30.0501C18.5058 29.0445 17.0362 27.7682 14.2709 27.7682C11.4863 27.7682 10.0166 29.0445 8.837 30.0501C7.77343 30.9783 7.01924 31.6358 5.31752 31.6358C4.52467 31.6358 3.86719 32.2933 3.86719 33.0861C3.86719 33.8983 4.52467 34.5365 5.31752 34.5365C8.10215 34.5365 9.55246 33.2795 10.7321 32.2546C11.7956 31.3264 12.5692 30.6689 14.2709 30.6689C15.9726 30.6689 16.7268 31.3264 17.7904 32.2546C18.97 33.2795 20.4396 34.5365 23.2049 34.5365C25.9896 34.5365 27.4592 33.2795 28.6388 32.2546C29.7024 31.3264 30.4566 30.6689 32.1583 30.6689C33.8407 30.6689 34.6142 31.3264 35.6778 32.2546C36.8574 33.2795 38.327 34.5365 41.0923 34.5365C41.8852 34.5365 42.5427 33.8983 42.5427 33.0861C42.5427 32.2933 41.8852 31.6358 41.0923 31.6358Z" fill="black"/>
<path d="M41.0923 23.6702C39.3906 23.6702 38.6364 22.9933 37.5729 22.0845C36.3933 21.0596 34.9236 19.8026 32.1583 19.8026C29.3737 19.8026 27.9233 21.0596 26.7437 22.0845C25.6801 22.9933 24.9066 23.6702 23.2049 23.6702C21.5225 23.6702 20.749 22.9933 19.6854 22.0845C18.5058 21.0596 17.0362 19.8026 14.2709 19.8026C11.4863 19.8026 10.0166 21.0596 8.837 22.0845C7.77343 22.9933 7.01924 23.6702 5.31752 23.6702C4.52467 23.6702 3.86719 24.3083 3.86719 25.1205C3.86719 25.9133 4.52467 26.5708 5.31752 26.5708C8.10215 26.5708 9.55246 25.2945 10.7321 24.2696C11.7956 23.3608 12.5692 22.7033 14.2709 22.7033C15.9726 22.7033 16.7268 23.3608 17.7904 24.2696C18.97 25.2945 20.4396 26.5708 23.2049 26.5708C25.9896 26.5708 27.4592 25.2945 28.6388 24.2696C29.7024 23.3608 30.4566 22.7033 32.1583 22.7033C33.8407 22.7033 34.6142 23.3608 35.6778 24.2696C36.8574 25.2945 38.327 26.5708 41.0923 26.5708C41.8852 26.5708 42.5427 25.9133 42.5427 25.1205C42.5427 24.3083 41.8852 23.6702 41.0923 23.6702Z" fill="black"/>
<path d="M5.31752 18.6414C8.10215 18.6414 9.55246 17.3651 10.7321 16.3595C11.7956 15.4313 12.5692 14.7738 14.2709 14.7738C15.9726 14.7738 16.7268 15.4313 17.7904 16.3595C18.97 17.3651 20.4396 18.6414 23.2049 18.6414C25.9896 18.6414 27.4592 17.3651 28.6388 16.3595C29.7024 15.4313 30.4566 14.7738 32.1583 14.7738C33.8407 14.7738 34.6142 15.4313 35.6778 16.3595C36.8574 17.3651 38.327 18.6414 41.0923 18.6414C41.8852 18.6414 42.5427 17.9839 42.5427 17.191C42.5427 16.3789 41.8852 15.7407 41.0923 15.7407C39.3906 15.7407 38.6364 15.0832 37.5728 14.155C36.3932 13.1301 34.9236 11.8732 32.1583 11.8732C29.3737 11.8732 27.9233 13.1301 26.7437 14.155C25.6801 15.0832 24.9066 15.7407 23.2049 15.7407C21.5225 15.7407 20.749 15.0832 19.6854 14.155C18.5058 13.1301 17.0362 11.8732 14.2709 11.8732C11.4863 11.8732 10.0166 13.1301 8.837 14.155C7.77342 15.0832 7.01924 15.7407 5.31752 15.7407C4.52467 15.7407 3.86719 16.3789 3.86719 17.191C3.86719 17.9839 4.52467 18.6414 5.31752 18.6414Z" fill="black"/>
</svg>
