<svg width="44" height="44" viewBox="0 0 44 44" fill="none" xmlns="http://www.w3.org/2000/svg">
<path d="M38.4914 29.6331C36.8975 29.6331 36.191 29.0172 35.1948 28.1478C34.0899 27.2059 32.7133 26.0104 30.123 26.0104C27.5147 26.0104 26.1562 27.2059 25.0512 28.1478C24.055 29.0172 23.3305 29.6331 21.7365 29.6331C20.1606 29.6331 19.4361 29.0172 18.4398 28.1478C17.3349 27.2059 15.9583 26.0104 13.3681 26.0104C10.7598 26.0104 9.38314 27.2059 8.27822 28.1478C7.28198 29.0172 6.57554 29.6331 4.98156 29.6331C4.2389 29.6331 3.62305 30.2489 3.62305 30.9916C3.62305 31.7523 4.2389 32.3501 4.98156 32.3501C7.58989 32.3501 8.94838 31.1727 10.0533 30.2127C11.0495 29.3433 11.7741 28.7274 13.3681 28.7274C14.9621 28.7274 15.6685 29.3433 16.6648 30.2127C17.7697 31.1727 19.1463 32.3501 21.7365 32.3501C24.3448 32.3501 25.7215 31.1727 26.8264 30.2127C27.8226 29.3433 28.5291 28.7274 30.123 28.7274C31.6989 28.7274 32.4235 29.3433 33.4197 30.2127C34.5246 31.1727 35.9012 32.3501 38.4914 32.3501C39.2341 32.3501 39.85 31.7523 39.85 30.9916C39.85 30.2489 39.2341 29.6331 38.4914 29.6331Z" fill="white"/>
<path d="M38.4914 22.1708C36.8975 22.1708 36.191 21.5368 35.1948 20.6855C34.0899 19.7255 32.7133 18.5481 30.123 18.5481C27.5147 18.5481 26.1562 19.7255 25.0512 20.6855C24.055 21.5368 23.3305 22.1708 21.7365 22.1708C20.1606 22.1708 19.4361 21.5368 18.4398 20.6855C17.3349 19.7255 15.9583 18.5481 13.3681 18.5481C10.7598 18.5481 9.38314 19.7255 8.27822 20.6855C7.28198 21.5368 6.57554 22.1708 4.98156 22.1708C4.2389 22.1708 3.62305 22.7685 3.62305 23.5293C3.62305 24.2719 4.2389 24.8878 4.98156 24.8878C7.58989 24.8878 8.94838 23.6923 10.0533 22.7323C11.0495 21.881 11.7741 21.2651 13.3681 21.2651C14.9621 21.2651 15.6685 21.881 16.6648 22.7323C17.7697 23.6923 19.1463 24.8878 21.7365 24.8878C24.3448 24.8878 25.7215 23.6923 26.8264 22.7323C27.8226 21.881 28.5291 21.2651 30.123 21.2651C31.6989 21.2651 32.4235 21.881 33.4197 22.7323C34.5246 23.6923 35.9012 24.8878 38.4914 24.8878C39.2341 24.8878 39.85 24.2719 39.85 23.5293C39.85 22.7685 39.2341 22.1708 38.4914 22.1708Z" fill="white"/>
<path d="M4.98156 17.4601C7.58989 17.4601 8.94838 16.2646 10.0533 15.3227C11.0495 14.4532 11.7741 13.8374 13.3681 13.8374C14.9621 13.8374 15.6685 14.4532 16.6648 15.3227C17.7697 16.2646 19.1463 17.4601 21.7365 17.4601C24.3448 17.4601 25.7215 16.2646 26.8264 15.3227C27.8226 14.4532 28.5291 13.8374 30.123 13.8374C31.6989 13.8374 32.4235 14.4532 33.4197 15.3227C34.5246 16.2646 35.9012 17.4601 38.4914 17.4601C39.2341 17.4601 39.8499 16.8442 39.8499 16.1016C39.8499 15.3408 39.2341 14.7431 38.4914 14.7431C36.8975 14.7431 36.191 14.1272 35.1948 13.2577C34.0899 12.2977 32.7133 11.1204 30.123 11.1204C27.5147 11.1204 26.1562 12.2977 25.0512 13.2577C24.055 14.1272 23.3305 14.7431 21.7365 14.7431C20.1606 14.7431 19.4361 14.1272 18.4398 13.2577C17.3349 12.2977 15.9583 11.1204 13.3681 11.1204C10.7598 11.1204 9.38314 12.2977 8.27822 13.2577C7.28198 14.1272 6.57554 14.7431 4.98156 14.7431C4.2389 14.7431 3.62305 15.3408 3.62305 16.1016C3.62305 16.8442 4.2389 17.4601 4.98156 17.4601Z" fill="white"/>
</svg>
